<svg xmlns="http://www.w3.org/2000/svg" width="18" height="17"><g fill="none" fill-rule="evenodd"><path d="M0 0h4v4H0z"/><path fill="#E57200" d="M4 1.998C4 3.113 3.228 4 1.99 4h-.024C.774 4 0 3.111 0 1.998 0 .864.796 0 2.012 0S3.977.864 4 1.998"/><path d="M0 17h18V0H0z"/><path fill="#E57200" d="M0 17h4V5H0zM18 10.278V17h-3.931v-6.273c0-1.576-.57-2.65-1.992-2.65-1.086 0-1.731.725-2.016 1.425-.104.25-.132.6-.132.95V17H6S6.051 6.376 6 5.277h3.931V6.94c.52-.8 1.454-1.94 3.541-1.94C16.06 5 18 6.675 18 10.278"/><path fill="#FFF" d="M10 7.046h.032V7a.225.225 0 0 0-.032.046m0 0h.032V7a.225.225 0 0 0-.032.046m0 0h.032V7a.225.225 0 0 0-.032.046m0 0h.032V7a.225.225 0 0 0-.032.046m0 0h.032V7a.225.225 0 0 0-.032.046"/></g></svg>