<svg xmlns="http://www.w3.org/2000/svg" width="21" height="17"><path fill="#E57200" d="M21 2a8.85 8.85 0 0 1-2.47.66A4.21 4.21 0 0 0 20.42.3a8.79 8.79 0 0 1-2.74 1A4.37 4.37 0 0 0 14.54 0a4.24 4.24 0 0 0-4.31 4.17 4 4 0 0 0 .11.95A12.38 12.38 0 0 1 1.46.76a4 4 0 0 0-.58 2.1A4.13 4.13 0 0 0 2.8 6.33a4.41 4.41 0 0 1-2-.52v.05a4.21 4.21 0 0 0 3.5 4.08 4.45 4.45 0 0 1-1.95.06 4.3 4.3 0 0 0 4 2.89A8.83 8.83 0 0 1 0 14.63a12.5 12.5 0 0 0 6.6 1.87A12 12 0 0 0 18.86 4.65v-.54A8.59 8.59 0 0 0 21 2z"/></svg>